<?xml version="1.0" encoding="iso-8859-1"?>
<!-- Uploaded to: SVG Repo, www.svgrepo.com, Generator: SVG Repo Mixer Tools -->
<svg height="800px" width="800px" version="1.1" id="Capa_1" xmlns="http://www.w3.org/2000/svg" xmlns:xlink="http://www.w3.org/1999/xlink" 
	 viewBox="0 0 52.373 52.373" stroke="#edcc78" xml:space="preserve">
<g>
	<path style="fill:#edcc78;" d="M31.172,20.88l8.175-13.725c0.201-0.339,0.635-0.448,0.973-0.247
		c0.337,0.201,0.447,0.635,0.247,0.972l-8.175,13.726c-0.2,0.338-0.635,0.448-0.973,0.247C31.082,21.652,30.972,21.216,31.172,20.88
		z M33.642,25.907c0.169,0.354,0.592,0.505,0.945,0.336l14.433-6.849c0.355-0.169,0.505-0.591,0.337-0.946
		c-0.169-0.354-0.591-0.505-0.945-0.336l-14.433,6.85C33.625,25.129,33.474,25.553,33.642,25.907z M51.764,32.896l-15.809-2.302
		c-0.388-0.057-0.749,0.211-0.805,0.601c-0.057,0.389,0.212,0.747,0.6,0.804l15.809,2.302c0.389,0.055,0.749-0.213,0.806-0.601
		C52.422,33.311,52.154,32.952,51.764,32.896z M26.549,14.968c-0.17-0.454-0.703-0.707-1.168-0.532
		c-0.466,0.176-0.704,0.698-0.53,1.165l9.264,24.805c0.131,0.353,0.473,0.589,0.85,0.589c0.107,0,0.214-0.019,0.317-0.058
		c0.467-0.176,0.705-0.698,0.531-1.164L26.549,14.968z M32.633,40.585c0.069,0.185,0.044,0.392-0.065,0.553
		c-0.071,0.106-0.174,0.186-0.29,0.23c-0.063,0.022-0.129,0.036-0.198,0.037l-15.764,0.388l0.115,2.756
		c0.011,0.271-0.155,0.506-0.395,0.596c-0.06,0.021-0.123,0.035-0.188,0.038l-9.054,0.382c-0.162,0.006-0.319-0.051-0.437-0.161
		c-0.119-0.109-0.19-0.26-0.197-0.422l-0.122-2.911l-2.023,0.756c-0.314,0.118-0.665-0.044-0.783-0.358l-3.193-8.552
		c-0.119-0.316,0.041-0.666,0.357-0.784l1.612-0.601l20.403-17.006c0.149-0.126,0.354-0.172,0.544-0.12
		c0.191,0.05,0.345,0.189,0.414,0.374L32.633,40.585z M15.191,43.994l-0.093-2.168l-0.604,0.015
		c0.012,0.063,0.026,0.127,0.029,0.193c0.016,0.374-0.138,0.744-0.422,1.014c-0.269,0.257-0.631,0.407-1.019,0.424l-3.631,0.151
		c-0.802,0-1.456-0.577-1.487-1.312c-0.004-0.106,0.008-0.209,0.029-0.312l-0.741,0.019l0.098,2.307L15.191,43.994z M9.452,42.622
		l0.027-0.001l3.561-0.15c0.143-0.005,0.279-0.059,0.372-0.148c0.044-0.041,0.117-0.129,0.111-0.246
		c-0.003-0.081-0.048-0.151-0.11-0.21l-4.257,0.104C9.13,41.989,9.099,42,9.076,42.022c-0.044,0.041-0.117,0.129-0.111,0.246
		C8.973,42.463,9.191,42.622,9.452,42.622z M31.195,40.212l-8.664-23.201L2.71,33.532c-0.053,0.043-0.114,0.079-0.178,0.103
		l-1.14,0.425l2.769,7.413l1.615-0.604c0.063-0.023,0.13-0.036,0.198-0.038l9.643-0.237c0.013-0.001,0.024-0.006,0.038-0.005
		c0.017-0.002,0.035,0.002,0.053,0.002L31.195,40.212z"/>
</g>
</svg>
